<svg xmlns="http://www.w3.org/2000/svg" fill="none" viewBox="0 0 1052 1052">
  <path fill="#F0DB4F" d="M0 0h1052v1052H0z" />
  <path fill="#323330" d="M306.5 956.9a149 149 0 0 1-52.4-9.3 120.2 120.2 0 0 1-41.7-26l28-47.5c9.1 8.5 19 15 29.9 19.6a83.4 83.4 0 0 0 32.8 6.8c16 0 27.4-5.2 34.3-15.6 6.9-10.5 10.3-27.5 10.3-51V609h70.6v232.8c0 38.8-9.2 67.7-27.5 86.7s-46.4 28.4-84.3 28.4Zm264.2 0c-25.8 0-49.1-5.2-70-15.7a131.3 131.3 0 0 1-50.5-45l40.7-39.3a131.9 131.9 0 0 0 39.2 31.4 92.4 92.4 0 0 0 43 12.3 59 59 0 0 0 36.3-10.3 32.1 32.1 0 0 0 13.8-27c0-8.2-1.5-14.9-4.4-20-3-5.3-8.5-10.5-16.7-15.8a361.3 361.3 0 0 0-40.2-22 382.8 382.8 0 0 1-57.8-33.8 111.9 111.9 0 0 1-31.4-33.8 91.3 91.3 0 0 1-9.8-43.1c0-18 4.8-33.9 14.2-47.6a91.7 91.7 0 0 1 40.2-31.8 149 149 0 0 1 59.8-11.3 145 145 0 0 1 65.7 14.2 91.4 91.4 0 0 1 42.1 39.2l-44.6 33.3a74.7 74.7 0 0 0-60.3-30.3c-15 0-26.6 2.9-34.7 8.8a29 29 0 0 0-12.3 25c0 6.5 2 12.4 5.9 17.6a80 80 0 0 0 22.5 17.1c10.8 6.3 27 14.4 48.5 24.5 21 9.9 37.3 19.6 49 29.5a87 87 0 0 1 26 32.8c5.2 12 7.8 26.4 7.8 43.1 0 19.6-5 37-15.1 52a95.8 95.8 0 0 1-42.7 34.2 162 162 0 0 1-64.2 11.8ZM725 609h227.8v56.4H795.5v78.4h140.2V800H795.5v95.5h157.3V952H725V609Z" />
</svg>
